<svg width="27" height="27" viewBox="0 0 27 27" fill="none" xmlns="http://www.w3.org/2000/svg">
<path d="M9 6.75H5.625C5.00288 6.75 4.5 6.246 4.5 5.625C4.5 5.004 5.00288 4.5 5.625 4.5H9C9.62213 4.5 10.125 5.004 10.125 5.625C10.125 6.246 9.62213 6.75 9 6.75ZM14.625 11.25H5.625C5.00288 11.25 4.5 10.746 4.5 10.125C4.5 9.504 5.00288 9 5.625 9H14.625C15.2471 9 15.75 9.504 15.75 10.125C15.75 10.746 15.2471 11.25 14.625 11.25ZM14.625 15.75H5.625C5.00288 15.75 4.5 15.246 4.5 14.625C4.5 14.004 5.00288 13.5 5.625 13.5H14.625C15.2471 13.5 15.75 14.004 15.75 14.625C15.75 15.246 15.2471 15.75 14.625 15.75Z" fill="white"/>
<path d="M20.25 2.25V11.25C20.25 11.8687 19.7437 12.375 19.125 12.375C18.5063 12.375 18 11.8687 18 11.25V2.8125C18 2.4975 17.7525 2.25 17.4375 2.25H2.8125C2.4975 2.25 2.25 2.4975 2.25 2.8125V24.1875C2.25 24.5025 2.4975 24.75 2.8125 24.75H17.4375C17.7525 24.75 18 24.5025 18 24.1875V23.625C18 23.0063 18.5063 22.5 19.125 22.5C19.7437 22.5 20.25 23.0063 20.25 23.625V24.75C20.25 25.9875 19.2375 27 18 27H2.25C1.0125 27 0 25.9875 0 24.75V2.25C0 1.0125 1.0125 0 2.25 0H18C19.2375 0 20.25 1.0125 20.25 2.25Z" fill="white"/>
<path d="M26.8537 13.3672C27.2025 13.9747 26.9043 14.7994 26.1843 15.2156L15.3281 21.4819C15.2336 21.5381 15.1301 21.5786 15.03 21.6056L12.042 22.3481C11.6257 22.4516 11.232 22.3087 11.052 21.9949C10.8697 21.6821 10.9507 21.2636 11.2432 20.9677L13.3886 18.765C13.4595 18.684 13.5427 18.6266 13.6293 18.5771C13.6338 18.5659 13.6428 18.5602 13.6428 18.5602L24.4991 12.294C25.2191 11.8777 26.0831 12.0307 26.4341 12.6371L26.8548 13.3684L26.8537 13.3672Z" fill="white"/>
</svg>
