<svg width="20" height="26" viewBox="0 0 20 26" fill="none" xmlns="http://www.w3.org/2000/svg">
<path d="M19.1673 12.9999C18.9463 12.9999 18.7344 13.0912 18.5781 13.2537C18.4218 13.4163 18.334 13.6367 18.334 13.8666V16.4666C18.334 16.6964 18.4218 16.9169 18.5781 17.0794C18.7344 17.2419 18.9463 17.3332 19.1673 17.3332C19.3883 17.3332 19.6003 17.2419 19.7566 17.0794C19.9128 16.9169 20.0006 16.6964 20.0006 16.4666V13.8666C20.0006 13.6367 19.9128 13.4163 19.7566 13.2537C19.6003 13.0912 19.3883 12.9999 19.1673 12.9999ZM19.634 9.68056C19.5876 9.64758 19.5372 9.62133 19.484 9.60256C19.4342 9.57646 19.3808 9.5589 19.3257 9.55056C19.1918 9.52268 19.0534 9.52944 18.9226 9.57024C18.7918 9.61104 18.6727 9.68464 18.5757 9.78456C18.4984 9.86554 18.4373 9.96158 18.3959 10.0672C18.3544 10.1728 18.3334 10.2858 18.334 10.3999C18.334 10.6297 18.4218 10.8502 18.5781 11.0127C18.7344 11.1753 18.9463 11.2666 19.1673 11.2666C19.3883 11.2666 19.6003 11.1753 19.7566 11.0127C19.9128 10.8502 20.0006 10.6297 20.0006 10.3999C19.9976 10.1704 19.9113 9.95064 19.759 9.78456L19.634 9.68056Z" fill="white"/>
<path d="M17.4998 2.6H16.6665C16.6665 1.91044 16.4031 1.24912 15.9342 0.761522C15.4654 0.273928 14.8295 0 14.1665 0H5.83326C5.17023 0 4.53435 0.273928 4.06552 0.761522C3.59668 1.24912 3.33329 1.91044 3.33329 2.6H2.49997C1.84833 2.59976 1.22235 2.86415 0.755383 3.33685C0.288418 3.80955 0.0173771 4.45319 0 5.13067V23.4693C0.0173771 24.1468 0.288418 24.7905 0.755383 25.2631C1.22235 25.7358 1.84833 26.0002 2.49997 26H17.4998C18.1514 26.0002 18.7774 25.7358 19.2444 25.2631C19.7113 24.7905 19.9824 24.1468 19.9998 23.4693V19.0667C19.9998 18.8368 19.912 18.6164 19.7557 18.4538C19.5994 18.2913 19.3874 18.2 19.1664 18.2C18.9454 18.2 18.7335 18.2913 18.5772 18.4538C18.4209 18.6164 18.3331 18.8368 18.3331 19.0667V23.4693C18.3163 23.687 18.2212 23.89 18.0667 24.0378C17.9122 24.1856 17.7097 24.2674 17.4998 24.2667H2.49997C2.29004 24.2674 2.08759 24.1856 1.93309 24.0378C1.7786 23.89 1.68344 23.687 1.66665 23.4693V5.13067C1.68344 4.91303 1.7786 4.71001 1.93309 4.56219C2.08759 4.41436 2.29004 4.33263 2.49997 4.33333H3.33329C3.33329 5.0229 3.59668 5.68422 4.06552 6.17181C4.53435 6.65941 5.17023 6.93333 5.83326 6.93333H14.1665C14.8295 6.93333 15.4654 6.65941 15.9342 6.17181C16.4031 5.68422 16.6665 5.0229 16.6665 4.33333H17.4998C17.7097 4.33263 17.9122 4.41436 18.0667 4.56219C18.2212 4.71001 18.3163 4.91303 18.3331 5.13067V6.93333C18.3331 7.16319 18.4209 7.38363 18.5772 7.54616C18.7335 7.70869 18.9454 7.8 19.1664 7.8C19.3874 7.8 19.5994 7.70869 19.7557 7.54616C19.912 7.38363 19.9998 7.16319 19.9998 6.93333V5.13067C19.9824 4.45319 19.7113 3.80955 19.2444 3.33685C18.7774 2.86415 18.1514 2.59976 17.4998 2.6ZM14.9998 4.33333C14.9998 4.56319 14.912 4.78363 14.7557 4.94616C14.5995 5.10869 14.3875 5.2 14.1665 5.2H5.83326C5.61225 5.2 5.40029 5.10869 5.24401 4.94616C5.08773 4.78363 4.99994 4.56319 4.99994 4.33333V2.6C4.99994 2.37015 5.08773 2.14971 5.24401 1.98717C5.40029 1.82464 5.61225 1.73333 5.83326 1.73333H14.1665C14.3875 1.73333 14.5995 1.82464 14.7557 1.98717C14.912 2.14971 14.9998 2.37015 14.9998 2.6V4.33333Z" fill="white"/>
<path d="M15.2164 10.6859L8.33313 18.6766L4.75818 14.9846C4.59876 14.8426 4.3937 14.7684 4.18397 14.7768C3.97425 14.7852 3.7753 14.8757 3.62689 15.03C3.47848 15.1844 3.39153 15.3913 3.38343 15.6094C3.37533 15.8275 3.44667 16.0408 3.58319 16.2066L7.74981 20.5399C7.90366 20.7032 8.11333 20.7966 8.33313 20.7999C8.4466 20.7972 8.55834 20.7705 8.66151 20.7213C8.76469 20.6721 8.85711 20.6015 8.93313 20.5139L16.433 11.8472C16.5811 11.676 16.6577 11.4506 16.646 11.2206C16.6343 10.9906 16.5352 10.7749 16.3705 10.6209C16.2059 10.4669 15.9891 10.3872 15.768 10.3994C15.5469 10.4116 15.3395 10.5147 15.1914 10.6859H15.2164Z" fill="white"/>
</svg>
