<svg width="52" height="52" viewBox="0 0 52 52" fill="none" xmlns="http://www.w3.org/2000/svg">
<path d="M51.0135 23.6819L28.3094 0.979595C27.7026 0.3745 26.8652 0 25.9393 0C25.0135 0 24.176 0.3745 23.5692 0.979595L18.8654 5.69205L24.8453 11.6719C25.2267 11.5384 25.6654 11.4621 26.1231 11.4621C28.3233 11.4621 30.1056 13.2445 30.1056 15.4447C30.1056 15.911 30.0259 16.3566 29.8785 16.7727L29.8872 16.745L35.6468 22.5081C36.0317 22.3712 36.4773 22.2914 36.9403 22.2914C39.1387 22.2914 40.9211 24.0738 40.9211 26.2722C40.9211 28.4707 39.1387 30.253 36.9403 30.253C34.7418 30.253 32.9595 28.4707 32.9595 26.2722C32.9595 25.7295 33.0687 25.2129 33.2646 24.7413L33.2542 24.7673L27.8621 19.4029V33.5403C29.1867 34.2078 30.0796 35.5567 30.0796 37.1136C30.0796 39.3156 28.2938 41.1014 26.0919 41.1014C23.89 41.1014 22.1042 39.3156 22.1042 37.1136C22.1042 36.0144 22.548 35.0209 23.2675 34.2997C23.6334 33.9338 24.0686 33.6374 24.5523 33.4293L24.5783 33.4189V19.1428C23.1184 18.5291 22.1128 17.1091 22.1128 15.4568C22.1128 14.902 22.2255 14.3749 22.4301 13.8946L22.4197 13.9206L16.5439 8.01707L0.974393 23.5762C0.371032 24.1847 0 25.0221 0 25.948C0 26.8738 0.372766 27.7113 0.976127 28.3198L23.6819 51.0187C24.287 51.6255 25.1244 52 26.0503 52C26.9761 52 27.8118 51.6255 28.4186 51.0187L51.0169 28.4204C51.6238 27.8153 52 26.9761 52 26.052C52 25.1279 51.6238 24.2887 51.0169 23.6836L51.0135 23.6819Z" fill="#3763B5"/>
</svg>
