<svg width="1280" height="659" viewBox="0 0 1280 659" fill="none" xmlns="http://www.w3.org/2000/svg">
<g filter="url(#filter0_f_350_49)">
<path d="M-214.46 121.513C-214.46 119.619 -216.448 224.246 -214.46 224.246C178.919 465.489 685.966 470.207 1313.91 224.246C1315.9 224.246 1641.62 147.272 1317.51 227.676C993.41 308.079 1315.9 231.105 1313.91 231.105C649.429 545.819 354.274 509.778 -214.46 231.105C-216.448 231.105 -214.46 123.407 -214.46 121.513Z" fill="url(#paint0_linear_350_49)"/>
</g>
<g opacity="0.5" filter="url(#filter1_f_350_49)">
<path d="M-214.46 121.513C-214.46 119.619 -216.448 224.246 -214.46 224.246C190.624 424.064 699.909 420.858 1313.91 224.246C1315.9 224.246 1641.62 147.272 1317.51 227.676C993.41 308.079 1315.9 231.105 1313.91 231.105C660.186 626.383 364.066 583.099 -214.46 231.105C-216.448 231.105 -214.46 123.407 -214.46 121.513Z" fill="url(#paint1_linear_350_49)"/>
</g>
<g opacity="0.25" filter="url(#filter2_f_350_49)">
<path d="M-240.117 115.024C-240.117 113.13 -242.104 224.615 -240.117 224.615C176.921 536.215 725.598 320.785 1288.26 224.615C1290.25 224.615 1615.96 140.783 1291.86 221.186C967.754 301.59 1290.25 224.615 1288.26 224.615C818.695 595.432 345.642 635.848 -240.117 224.615C-242.104 224.615 -240.117 116.918 -240.117 115.024Z" fill="url(#paint2_linear_350_49)"/>
<path d="M1286.03 225.729C1051.94 410.141 816.992 512.348 567.634 517.384C340.219 521.976 100.762 445.747 -161.021 277.246C28.6489 386.115 242.139 401.608 469.514 378.025C599.357 364.558 733.746 338.347 870.826 309.495C991.757 284.042 1114.78 256.536 1238.65 233.903C1192.11 245.516 1166.28 252.083 1154.71 255.159C1150.88 256.18 1148.59 256.821 1147.65 257.135C1147.43 257.209 1147.24 257.279 1147.12 257.341C1147.1 257.355 1147.03 257.389 1146.98 257.445C1146.94 257.48 1146.88 257.575 1146.85 257.642C1146.82 257.75 1146.85 257.983 1146.9 258.097C1146.96 258.171 1147.08 258.263 1147.14 258.289C1147.18 258.303 1147.24 258.319 1147.27 258.324C1147.32 258.333 1147.37 258.333 1147.4 258.332C1147.63 258.328 1148.17 258.238 1148.91 258.096C1151.96 257.509 1159.42 255.837 1169.38 253.539C1189.31 248.942 1219.31 241.833 1244.2 235.873C1256.64 232.893 1267.81 230.2 1275.81 228.252C1279.81 227.278 1283.01 226.49 1285.19 225.945C1285.49 225.87 1285.77 225.796 1286.03 225.729ZM1412.21 192.267C1391.63 197.72 1360.86 205.685 1335.11 212.288C1322.24 215.589 1310.62 218.551 1302.16 220.686C1297.92 221.753 1294.48 222.614 1292.07 223.208C1290.86 223.505 1289.91 223.735 1289.25 223.891C1288.92 223.968 1288.66 224.027 1288.48 224.066C1288.39 224.086 1288.32 224.1 1288.27 224.108C1288.25 224.112 1288.24 224.114 1288.24 224.115H1288.08L1288.05 224.145C1281.39 225.283 1274.73 226.437 1268.08 227.607C1275.62 225.732 1283.58 223.754 1291.98 221.672C1358.29 205.221 1397.4 195.645 1417.64 190.821C1415.93 191.279 1414.11 191.763 1412.21 192.267Z" stroke="black"/>
</g>
<path opacity="0.17" d="M-313 156.014C311.089 534.49 647.101 519.557 1466.19 163.223" stroke="url(#paint3_linear_350_49)" stroke-width="5" stroke-linecap="round"/>
<defs>
<filter id="filter0_f_350_49" x="-255.344" y="81.4879" width="1756.41" height="412.342" filterUnits="userSpaceOnUse" color-interpolation-filters="sRGB">
<feFlood flood-opacity="0" result="BackgroundImageFix"/>
<feBlend mode="normal" in="SourceGraphic" in2="BackgroundImageFix" result="shape"/>
<feGaussianBlur stdDeviation="20" result="effect1_foregroundBlur_350_49"/>
</filter>
<filter id="filter1_f_350_49" x="-295.344" y="41.4879" width="1836.41" height="550.079" filterUnits="userSpaceOnUse" color-interpolation-filters="sRGB">
<feFlood flood-opacity="0" result="BackgroundImageFix"/>
<feBlend mode="normal" in="SourceGraphic" in2="BackgroundImageFix" result="shape"/>
<feGaussianBlur stdDeviation="40" result="effect1_foregroundBlur_350_49"/>
</filter>
<filter id="filter2_f_350_49" x="-381" y="-25" width="1956.41" height="683.079" filterUnits="userSpaceOnUse" color-interpolation-filters="sRGB">
<feFlood flood-opacity="0" result="BackgroundImageFix"/>
<feBlend mode="normal" in="SourceGraphic" in2="BackgroundImageFix" result="shape"/>
<feGaussianBlur stdDeviation="70" result="effect1_foregroundBlur_350_49"/>
</filter>
<linearGradient id="paint0_linear_350_49" x1="-189.716" y1="342.457" x2="1345.86" y2="342.457" gradientUnits="userSpaceOnUse">
<stop stop-color="#28388E"/>
<stop offset="0.25" stop-color="#3E92FF"/>
<stop offset="0.5" stop-color="#6CC4FF"/>
<stop offset="0.77" stop-color="#24E1C9"/>
<stop offset="1" stop-color="#24E1C9"/>
</linearGradient>
<linearGradient id="paint1_linear_350_49" x1="-189.716" y1="380.846" x2="1345.86" y2="380.846" gradientUnits="userSpaceOnUse">
<stop stop-color="#28388E"/>
<stop offset="0.25" stop-color="#3E92FF"/>
<stop offset="0.5" stop-color="#6CC4FF"/>
<stop offset="0.77" stop-color="#24E1C9"/>
<stop offset="1" stop-color="#24E1C9"/>
</linearGradient>
<linearGradient id="paint2_linear_350_49" x1="-215.373" y1="383.002" x2="1320.2" y2="383.002" gradientUnits="userSpaceOnUse">
<stop stop-color="#28388E"/>
<stop offset="0.25" stop-color="#3E92FF"/>
<stop offset="0.5" stop-color="#6CC4FF"/>
<stop offset="0.77" stop-color="#24E1C9"/>
<stop offset="1" stop-color="#24E1C9"/>
</linearGradient>
<linearGradient id="paint3_linear_350_49" x1="-285.802" y1="341.628" x2="1343.91" y2="341.628" gradientUnits="userSpaceOnUse">
<stop stop-color="#28388E"/>
<stop offset="0.25" stop-color="#3E92FF"/>
<stop offset="0.5" stop-color="#6CC4FF"/>
<stop offset="0.77" stop-color="#24E1C9"/>
<stop offset="1" stop-color="#24E1C9"/>
</linearGradient>
</defs>
</svg>
